/* XPM */
static char *dd9af139ad534242dbc430d72308df32zPRzRbJUq8iw3K1M[] = {
/* columns rows colors chars-per-pixel */
"64 64 123 2 ",
"   c None",
".  c #2F230E",
"X  c #32250F",
"o  c #473119",
"O  c #4D361C",
"+  c #4F381D",
"@  c #51391E",
"#  c #553D21",
"$  c #583F22",
"%  c #60471D",
"&  c #5C4223",
"*  c #614626",
"=  c #654926",
"-  c #6A4D25",
";  c #664B29",
":  c #6A4E2A",
">  c #6E512B",
",  c #73552B",
"<  c #75582B",
"1  c #6E5230",
"2  c #735632",
"3  c #765935",
"4  c #785A35",
"5  c #815F2C",
"6  c #82602D",
"7  c #9A6E20",
"8  c #9D7122",
"9  c #8D6A34",
"0  c #8C6B39",
"q  c #946E34",
"w  c #967036",
"e  c #9B773A",
"r  c #A37627",
"t  c #A77A2A",
"y  c #A97C2C",
"u  c #A97E3A",
"i  c #AF812F",
"p  c #B0812F",
"a  c #AE8233",
"s  c #AB803B",
"d  c #B58532",
"f  c #B78836",
"g  c #B88A34",
"h  c #B3863E",
"j  c #B4883F",
"k  c #BE8E3B",
"l  c #C08F3D",
"z  c #C0903E",
"x  c #C9963F",
"c  c #AF8441",
"v  c #B18643",
"b  c #B68B41",
"n  c #B78D4A",
"m  c #BE9044",
"M  c #BB924F",
"N  c #C39343",
"B  c #CD9B45",
"V  c #CD9E4B",
"C  c #D39F46",
"Z  c #D19F4E",
"A  c #C59B55",
"S  c #D7A247",
"D  c #DDA443",
"F  c #D4A24D",
"G  c #D9A64D",
"H  c #CFA151",
"J  c #D2A251",
"K  c #D9A652",
"L  c #D6A851",
"P  c #DFAC51",
"I  c #D8AA5D",
"U  c #E7AC46",
"Y  c #E0AE4E",
"T  c #E5AB48",
"R  c #ECB049",
"E  c #EDB149",
"W  c #EEB149",
"Q  c #EEB249",
"!  c #EBB14F",
"~  c #EFB54E",
"^  c #EBB14F",
"/  c #F4B74F",
"(  c #F4B74F",
")  c #F5B84F",
"_  c #F5B84F",
"`  c #F8B94A",
"'  c #FBBB4B",
"]  c #E6AF56",
"[  c #E4AD51",
"{  c #E2B257",
"}  c #E5B457",
"|  c #E9B653",
" . c #EBB753",
".. c #EBB357",
"X. c #E9B556",
"o. c #EAB257",
"O. c #ECB854",
"+. c #ECB856",
"@. c #EDBA56",
"#. c #F6B850",
"$. c #F6B950",
"%. c #F7B950",
"&. c #F2BC57",
"*. c #F6B950",
"=. c #FABD50",
"-. c #F2BE5A",
";. c #F3BF5B",
":. c #F4BF5B",
">. c #FABE5B",
",. c #FABF5B",
"<. c #FABF5B",
"1. c #F4C05B",
"2. c #F6C15B",
"3. c #F4C05C",
"4. c #FCC05B",
"5. c #FDC15C",
"6. c #FEC15C",
"7. c #FFC75C",
"8. c #FDC15C",
"9. c #FBC760",
"0. c #FFCC62",
"q. c #FFCD63",
"w. c #FFCE63",
/* pixels */
"                                                                                                                                ",
"                                                                                                                                ",
"                                                                                                                                ",
"                                                                                                                                ",
"                                                                                                                                ",
"                                                                                                                                ",
"                                                                                                                                ",
"                                                                                                                                ",
"                                                                                                                                ",
"                                                                                                                                ",
"                                                                                                                                ",
"                                                                                                                                ",
"                        ` ` ` ` ` ` ` ` ` ` ` ` ` ` ` ` ` ` ` ` 7.w.7.w.w.w.7.w.w.w.7.w.w.w.0.0.w.0.                            ",
"                        E E E E W W W Q W W W W E E ( E ( W R ( &.1.1.1.:.;.;.;.:.:.;.;.:.;.:.;.;.;.                            ",
"                    ` E D C S S S S S S S S S S S S S S G D C G G G G G G G G G G G G G G G G G F P 1.w.                        ",
"                    U T F N s u u u u u u u u u u u u u u u u u u u u u u u u u u u u u u u u s m S X.:.                        ",
"                7 i x S V h 6 = - - = - - - - = = ; - - - - - - - - - - - = - = - - - = - = - < h B G P 1.w.                    ",
"                t d k N h w ; # # @ # # # # & @ # $ @ @ O o o o o o # # @ # # # @ # # # @ # # : w h N F | |                     ",
"            8 t g N B h 6 - > 1 > 1 1 1 1 1 > 1 1 1 1 ; @ o o o o @ ; 1 2 > 1 1 1 1 1 1 2 > 1 : - 6 h B F B i 7                 ",
"            t d z N h q * @ > 4 4 4 4 4 2 2 3 4 3 2 2 1 < < < < < , 1 1 4 4 4 4 2 2 4 4 4 4 4 1 @ * q j V B k d                 ",
"        8 y f N B h 6 * & & : > > 1 1 : : : > 1 , ; $ , v J Z J J v , $ ; > 1 : ; : > 1 , 1 > ; & & * 9 G 1.@.S d 8             ",
"        8 y l N h w - + & & = : : : : ; & & = : * = : w G 6.6.6.6.K q : = ; : ; = & = : ; ; : : * & @ , b { 7. .g 8             ",
"        r y z h 4 - & = & & : > ; : : ; & & ; = # , c G ^ / #.#./ ^ G v > # = : * * = : ; > ; > * & & = > e }  .g 8             ",
"        8 y z u : + & & & & & = * * = & & & & & O , Z 6./ D k k D / 6.Z , O $ & & & & & * * = & & & * $ o < L  .g 8             ",
"        r y l s - o O @ @ + @ @ # @ @ @ + + + O o , Z >.#.k % % k _ 6.Z , o O @ @ + @ @ @ @ @ @ + + + + o < L @.g 8             ",
"        8 y z v 5 - - - - - - - ; ; - - - - - - - 9 K >.#.a . . s ` 6.J 9 ; - - - - - - - - - - - - - - = 9 F Y p 8             ",
"        8 y m N h s u s s s s s s s u s u h u u u m ] >.#.a X X d #.>.] m u u s s s s s s s s s s s s s s j V B i 8             ",
"        8 t f k z z z z z z k k z z z z l N z l k C ..>.#.a X X a #.>.o.B l l z z z m k z z z z z z z k k k k f t 8             ",
"            y y y y y y y t y y y y y y y y y y t k [ >.#.d X X d #.>.[ k t t y t t i y t t t i i i t t t t t t                 ",
"            8 r y a a a a i i y y y y y y y y y y g ] >.#.u X X a #.>.[ k t y y i i t t t i a d a a a i a i r 8                 ",
"            8 y N H J J J V N z z l l z z l l l l B o.>.#.a . . s #.>...C l l z N k k k k N V H F H H H H m i 8                 ",
"            8 d H I A M M n c s h u u s h u u u u N o.>./ k % % k _ >.o.m u u s s s s s s v n M M M M A I H a 8                 ",
"            8 d J A 0 > > , ; - - - - - - - - - = q K >./ D l l D ( >.K q - - - - - - - - - > , > > , 9 A H a 8                 ",
"            7 a V n > o O @ @ # @ O + + @ @ + o O > v G ^ #.` %.( ^ G v : O O O @ @ @ @ @ @ @ @ @ O o > M J d 7                 ",
"            8 i N c - + & * * & $ $ * * = * $ $ * = > w G >.>.>.8.G w > = * & $ * * * * $ $ * = * $ O > M Z d 8                 ",
"            8 y z s - @ * ; : ; * * ; : : ; * * = * @ > v J Z Z F c > @ * ; & * ; : : ; * * = ; > * @ > M Z d 8                 ",
"            8 y z s - @ * : : ; * * ; : : ; * * ; ; = = > < < < , , = = ; ; = * ; : : ; * * ; : : * @ > N H d 8                 ",
"            r y z s - @ = : : ; * * ; : : ; * * = : : = # + O O O # = : ; ; * * ; : ; ; * * ; : : * @ , n Z u 7                 ",
"            r y z s - @ * : : ; * * ; ; ; ; * * ; : : ; = & $ $ & ; ; : : = * * ; : ; = * * ; : : * @ : c N y r                 ",
"            8 y z s - @ * : : ; * * ; : : = * * ; : : : : ; * * ; ; : : : ; * & ; : : ; & * ; : : * @ - u N y 7                 ",
"            8 y l u - @ * : : ; * * ; : : ; * * = : : : : ; = * ; : ; : - ; * = ; : : ; * * ; ; : & @ - s z y 8                 ",
"            r y N h - O & * * & $ $ * * * * $ $ * = * * * * $ $ * * * ; * * $ $ * * * * & & * * = & O - v N y 8                 ",
"            8 a Z n > o O # O @ O @ @ @ @ @ O + @ @ @ @ + @ + + @ @ @ @ @ @ @ @ @ @ + + @ @ @ @ @ O o > n V a 8                 ",
"            7 d J A 0 : - - - - - - - - - - - - - - - - - - - - - - - - - - - - - - - - - - - - - - > 0 A J a 8                 ",
"            8 a J I A n c u u y u u u u u u u h u h u u s s s s u s u u u h u u u u u u u u y u s c n A I H a 8                 ",
"            8 y N C Z V N l x l x l l l l l l l l l l l l l l l l l l l l l l l l l l l l x l l k N V J H N y 8                 ",
"        r 8 8 r t y u y y t t t y y y y y t y t y y t t t y t y y y y y t y t y y y y y y y y t t y a a a y 8 7 8 r             ",
"        8 r a d l y l d d d l y l y d d d d d d d d d d d d d d d d d d d d d d d d d d y l y l d d d d d d f d r 8             ",
"        8 a C [ [ Y [ [ [ [ [ [ [ [ [ [ [ [ [ [ [ [ [ [ [ [ [ [ [ [ [ [ [ [ [ [ [ [ [ [ [ [ [ [ [ [ [ [ [ [ o.C p 8             ",
"        7 d C [ [ [ [ [ [ [ [ [ [ [ [ [ [ [ [ P [ [ [ [ [ [ [ [ [ [ [ [ [ [ [ [ [ [ [ [ [ [ [ [ [ [ [ [ [ [ Y C p 8             ",
"        8 r p d d d d d d d d d d g d d d d d d d d d d d d d d d d d d d d d d d d d d d d d d d d d d d d d p r 8             ",
"        r 8 8 8 r 7 8 8 8 8 8 8 8 8 8 8 8 8 8 8 8 8 8 8 8 8 8 8 8 8 8 8 8 8 8 8 8 8 8 8 8 8 8 8 8 8 8 8 8 8 8 8 r 8             ",
"                                                                                                                                ",
"                                                                                                                                ",
"                                                                                                                                ",
"                                                                                                                                ",
"                                                                                                                                ",
"                                                                                                                                ",
"                                                                                                                                ",
"                                                                                                                                ",
"                                                                                                                                ",
"                                                                                                                                ",
"                                                                                                                                ",
"                                                                                                                                "
};
