/* XPM */
static char *beb16f47c576473fdea8368cfb81cad7s1MiJNpbdlUIaAed[] = {
/* columns rows colors chars-per-pixel */
"64 64 167 2 ",
"   c None",
".  c #2B1F14",
"X  c #2E2216",
"o  c #2E241B",
"O  c #312417",
"+  c #332619",
"@  c #36291C",
"#  c #392B1D",
"$  c #2F2622",
"%  c #302723",
"&  c #362B22",
"*  c #3B2E21",
"=  c #342C2E",
"-  c #3D3124",
";  c #3C322B",
":  c #373036",
">  c #3C3434",
",  c #3A353E",
"<  c #412F1F",
"1  c #402F20",
"2  c #433223",
"3  c #493726",
"4  c #4B3927",
"5  c #41352A",
"6  c #47392D",
"7  c #4D3B2B",
"8  c #523E2C",
"9  c #453C33",
"0  c #4D3E31",
"q  c #433D3A",
"w  c #55422E",
"e  c #58432F",
"r  c #4D4135",
"t  c #45413E",
"y  c #4C4239",
"u  c #554330",
"i  c #594531",
"p  c #5E4935",
"a  c #544639",
"s  c #56493D",
"d  c #5B4B3C",
"f  c #614C36",
"g  c #634E3A",
"h  c #66523C",
"j  c #69543E",
"k  c #3B3540",
"l  c #3E3945",
"z  c #3F3B4C",
"x  c #413C47",
"c  c #443F4A",
"v  c #433F52",
"b  c #4A4541",
"n  c #49434F",
"m  c #4A464A",
"M  c #534C44",
"N  c #5C4F42",
"B  c #534E49",
"V  c #5D5043",
"C  c #5B554F",
"Z  c #474256",
"A  c #4F4A55",
"S  c #4B465B",
"D  c #4E495F",
"F  c #4F4C5A",
"G  c #504B57",
"H  c #544F5B",
"J  c #545454",
"K  c #5A5351",
"L  c #5D5854",
"P  c #5E5B58",
"I  c #604F40",
"U  c #604F40",
"Y  c #625243",
"T  c #615344",
"R  c #665646",
"E  c #645344",
"W  c #6B5540",
"Q  c #655649",
"!  c #66584A",
"~  c #6A5A4A",
"^  c #6B5B4B",
"/  c #6F5A43",
"(  c #745E46",
")  c #725B44",
"_  c #665B53",
"`  c #685D54",
"'  c #625F5C",
"]  c #71604F",
"[  c #7D654C",
"{  c #6A6057",
"}  c #6D6258",
"|  c #66625E",
" . c #746352",
".. c #70655B",
"X. c #534D64",
"o. c #524D64",
"O. c #544F66",
"+. c #544E65",
"@. c #534D64",
"#. c #575360",
"$. c #5B5866",
"%. c #575169",
"&. c #575168",
"*. c #575269",
"=. c #575269",
"-. c #58526A",
";. c #59526B",
":. c #59536B",
">. c #59536C",
",. c #5A546C",
"<. c #59526B",
"1. c #5E5770",
"2. c #5E5871",
"3. c #605A73",
"4. c #615A74",
"5. c #615A74",
"6. c #665F7A",
"7. c #665F79",
"8. c #6F6765",
"9. c #6F6B66",
"0. c #676868",
"q. c #6C6B69",
"w. c #706765",
"e. c #726963",
"r. c #726C69",
"t. c #77726D",
"y. c #7F766D",
"u. c #6C6C71",
"i. c #737373",
"p. c #797570",
"a. c #7F7876",
"s. c #81776E",
"d. c #82786E",
"f. c #837A72",
"g. c #887D72",
"h. c #8D837C",
"j. c #90867E",
"k. c #93887E",
"l. c #6C6580",
"z. c #726A87",
"x. c #726B87",
"c. c #726A87",
"v. c #736B88",
"b. c #736C89",
"n. c #736C88",
"m. c #7B7391",
"M. c #7C7392",
"N. c #7C7492",
"B. c #7B7391",
"V. c #8B8681",
"C. c #89898A",
"Z. c #858285",
"A. c #938B83",
"S. c #998F85",
"D. c #938F8C",
"F. c #95918D",
"G. c #9A9289",
"H. c #9B9186",
"J. c #919095",
"K. c #9C9A97",
"L. c #9A9590",
"P. c #A0968E",
"I. c #A49C95",
"U. c #A19D99",
"Y. c #A9A29A",
"T. c #A5A19C",
"R. c #AEAEAF",
/* pixels */
"                                                                                                                                ",
"                                                                                                                                ",
"                            m.m.m.m.m.N.m.m.m.m.m.m.m.m.m.m.N.N.m.m.m.m.m.m.m.m.m.m.M.N.m.m.m.m.m.m.                            ",
"                            v.z.c.c.c.v.v.v.v.v.z.z.z.z.c.v.v.b.v.v.v.z.z.z.z.z.c.c.c.v.v.v.v.v.z.v.                            ",
"                    m.N.N.n.7.3.2.2.7.2.4.4.4.4.4.4.2.5.5.5.2.2.2.2.7.2.4.4.4.4.2.2.7.2.4.4.4.4.3.7.n.N.m.m.                    ",
"                    v.n.v.l.1.&.<.&.&.<.&.&.&.&.&.&.<.&.<.<.<.&.<.&.&.&.&.&.&.&.<.&.<.&.&.&.&.&.&.1.l.n.v.v.                    ",
"                N.n.7.2.4.2.,.&.&.&.*.&.<.&.-.&.&.&.&.&.&.&.*.*.>.<.&.*.&.&.<.&.&.&.<.&.&.&.-.&.&.,.2.4.2.7.n.N.                ",
"                b.l.2.&.&.&.-.-.>.&.>.<.<.<.-.-.>.&.,.<.<.<.>.&.<.<.>.&.>.<.<.<.<.<.<.&.<.>.-.-.-.-.&.&.-.2.l.n.                ",
"            M.b.6.2.<.<.<.<.&.<.*.*.*.,.>.-.-.-.-.-.-.-.>.-.-.,.<.<.<.>.,.-.>.-.-.-.-.>.>.-.>.-.>.<.>.%.%.;.>.l.b.N.            ",
"            b.l.2.<.&.<.<.%.O.o.o.&.o.o.o.o.o.o.+.+.+.+.+.o.+.o.o.o.o.o.o.o.o.+.+.+.@.+.o.o.o.+.o.o.%.%.>.%.%.2.l.b.            ",
"        N.b.l.>.>.&.<.<.<.o.S Z Z Z Z Z Z Z Z S Z Z Z Z Z Z Z Z Z Z Z Z Z Z Z Z Z Z Z Z Z Z Z Z Z S %.%.%.%.%.;.2.6.n.N.        ",
"        b.l.2.O.&.<.<.&.o.D Z z l , , l k k k k k k k k k k k , k k l k k , , l k k k k k k k l z v D o.%.>.%.%.<.2.l.b.        ",
"    N.b.u.2.>.O.&.&.:.o.S Z v l = % % o $ % % % % % % % $ % $ % $ $ % % % $ % % % % $ $ $ $ $ = l z Z S O.;.;.>.%.;.1.l.b.N.    ",
"    b.l.2.&.>.>.&.&.&.S Z z l : % X # - 2 # + o @ # 2 * + X # - - * o o @ - - # O + * 5 - # X $ : l z Z D O.%.;.;.%.O.2.l.b.    ",
"M.c.l.2.>.<.&.<.,.&.S Z Z l = o X @ e j / p * + 4 p W p * # i h j a # @ r V R d * * d ^ ^ d * X $ = l z v D O.;.;.>.O.>.2.u.v.M.",
"M.c.2.%.&.&.>.&.o.D Z z l : % o X * p ] [ W - @ 8 h ( h * * g ( ( p # * a R ] E * & s ^  .R - X @ ; , z z v D O.;.O.;.%.%.2.v.m.",
"M.c.2.>.<.<.<.O.S Z v l = % 2 # + @ 4 p j p * + 3 u i 8 + # i h p 7 @ @ 4 d j p * X * 7 g d * # i d ; = l v v D +.;.&.&.<.2.v.M.",
"M.c.2.<.<.<.<.o.Z z l : & # 2 3 @ + 2 8 i w @ + 2 4 7 2 + # u p 8 - + + 2 7 p i 2 + X # 8 8 @ * p p 2 & : l z v o.>.>.&.&.4.v.M.",
"B.c.2.<.&.<.<.o.Z l = & 2 3 8 3 @ + 2 7 7 3 @ + 2 7 4 2 + * u f 8 2 + + 2 8 p f p 7 @ + 3 3 + # 7 w 3 * & = l Z o.;.;.&.<.4.v.m.",
"B.c.2.<.<.<.<.o.Z k o O < 4 8 2 + O 2 4 4 2 o + 1 7 4 2 O @ 8 i 8 2 + O 2 7 i i i 6 + O 2 2 + + 2 4 4 2 O $ k Z o.;.;.%.&.2.c.m.",
"N.n.2.<.&.<.<.o.Z , o O < 4 w 3 + + < 4 4 2 X + 2 3 4 2 X + 4 w 8 2 O O - 7 7 4 * + X o 1 2 O + 2 4 4 1 O % k Z o.<.<.%.&.5.v.M.",
"M.b.2.<.<.<.<.o.Z x q y g R R T r 0 d Y g d r 0 s h g s r a T ^ ~ Y y r s g h s r 6 6 r d d 0 y Y / R g r 9 x Z o.<.&.<.<.2.c.M.",
"m.v.2.>.&.<.<.o.Z A e.d.j.S.H.k.g.y.d.g.g.f.y.a.f.g.g.g.s.f.S.G.P.A.g.d.f.g.g.g.f.y.y.y.f.g.s.f.j.S.S.k.g.8.F v o.<.<.&.<.5.c.m.",
"m.c.2.%.<.&.<.o.Z H a.H.I.T.Y.T.F.A.A.A.A.A.A.A.A.A.A.A.A.F.U.Y.Y.I.F.A.A.A.A.A.A.A.A.A.A.A.A.S.I.I.I.I.G.f.H v o.<.<.&.<.2.c.m.",
"m.c.2.<.&.>.<.o.Z A r.f.h.j.A.A.h.y.a.d.a.a.d.f.a.a.d.f.f.f.h.A.j.h.g.a.d.f.f.a.s.f.a.s.s.f.a.f.h.h.j.h.f.r.G Z o.<.<.&.&.2.b.N.",
"m.c.2.<.&.<.<.o.Z n K ` } ....e._ _ _ _ ` ` _ _ ! ` _ _ _ _ } } } } { _ _ _ ` ! _ _ _ ` ` ` _ ` } ....} ` K n Z o.<.<.<.<.2.v.M.",
"m.v.4.<.&.<.>.o.Z l > 5 7 r r 7 5 ; 6 7 7 7 5 5 9 7 7 6 5 5 6 6 6 6 6 7 0 7 0 6 5 5 0 7 0 6 5 5 0 0 8 6 5 > l Z o.>.&.&.<.4.v.m.",
"m.v.2.<.&.<.>.o.Z k $ O < 2 < # O X # 2 < # X X # < 2 # O O # # X X # * - < < # X . # 1 * # X O # < < # O % k Z o.>.<.&.<.2.c.m.",
"m.v.5.<.<.<.<.o.S , $ @ 7 e w - + O # 4 4 2 + o < 4 4 2 X + - 2 O O 2 4 3 3 4 2 + O * 3 4 2 + + # 4 4 2 + $ , Z o.<.>.%.&.5.v.M.",
"m.c.2.&.&.<.<.o.Z k $ # i f e 3 @ + 3 7 w 4 @ + 2 7 w 3 @ + 2 3 @ # 7 w 7 7 w 4 @ @ 3 w w 4 + + 2 8 8 3 @ % k Z o.>.&.%.&.2.c.M.",
"m.c.2.<.&.<.<.o.Z k $ # e g e 3 @ + 2 7 8 4 + + 2 8 8 4 + + 3 2 + # w e w 7 8 3 + @ 8 p e 3 @ + 2 7 8 4 @ % k Z o.<.<.<.<.2.c.M.",
"m.c.4.<.<.<.<.o.Z k $ # e p i 3 + + 2 8 i 8 @ + 2 7 8 4 @ + 2 2 + # w p 8 4 8 3 @ # w f u 3 + + 2 8 8 3 @ % k Z o.<.<.<.<.2.c.m.",
"M.c.5.%.%.;.;.@.v k % # 8 f 8 3 + + 2 8 W g 1 + 2 4 0 3 + & 2 2 + # e p w 3 w 2 @ @ u f i 3 @ + - w w 2 @ o k Z O.*.*.*.*.5.n.N.",
"M.c.5.%.-.;.;.+.v k % # 8 f p 3 & + 4 f W g * O 2 8 8 4 # + 2 2 + # i g e w w 3 @ # u f w 3 O O 3 w w 2 @ % k Z &.*.*.*.&.5.v.m.",
"M.z.3.%.-.-.;.@.S k % # p f p 4 + # 8 g f 0 * + 2 8 8 4 + + 2 2 + - h / h i w 3 @ @ w f w 2 O @ w i w 3 @ % , Z o.*.*.*.&.4.v.m.",
"B.z.3.%.-.-.;.@.v k % * 8 f 8 4 + # 8 g 8 2 @ + 2 7 8 4 + + 2 2 + @ i h h p w 3 @ @ w h ^ ! s V ] ] p 2 @ % k Z o.*.>.*.&.2.z.m.",
"B.z.3.%.%.%.;.@.S k % & f f 8 2 + # 8 f p 4 + + 2 7 8 4 @ + 2 2 + o # 3 i f i 3 @ @ w  .A.U.K.K.T.k.! 3 O @ l Z o.<.<.<.<.4.v.m.",
"B.z.3.%.%.;.;.@.v x % # 8 f p 4 + * 8 f 8 3 + + 2 7 8 4 + & 7 8 - @ X @ w f u 3 @ @ w  .L.R.R.R.R.F.~ - O % k Z o.<.&.&.&.4.v.m.",
"M.c.3.%.%.;.;.+.v k $ # 8 h 8 3 + * p f p 3 + + 2 7 8 3 + * f h p r @ # e f u 3 @ @ u ^ a.C.C.C.C.p.d 3 @ % l Z o.>.<.&.<.4.c.m.",
"M.c.5.%.%.;.;.%.v k $ # 8 f p 3 + 1 8 f 8 3 + + 3 7 8 4 + 1 f ) h w @ # w g u 3 O @ a ! | 0.0.0.0.' V r O o , Z o.>.<.<.&.2.c.m.",
"M.z.5.%.-.-.-.X.v x $ * 8 f p 3 @ * 8 h p 4 + + 2 8 8 3 + 1 p W h w @ # u f u 2 O # B P J J J J J J L M % $ , Z o.>.-.&.&.4.v.m.",
"B.z.3.%.-.-.-.X.v k $ * 8 f 8 3 + # 8 f 8 4 @ + 2 8 8 2 + @ 8 f f w * @ u p e w y B C C y t q q t B J C M b z Z o.>.>.&.&.4.v.m.",
"B.z.3.%.-.-.;.@.v x $ # 8 f 8 3 + # 8 f 8 2 + + 2 7 7 2 + @ 2 e f u @ * w p w V h.h.{ r r - & ; u s a ! h.Z.H Z o.-.-.&.%.4.v.m.",
"B.z.3.%.-.-.;.@.v k $ # p f p 3 + * 8 f 8 2 + + 2 7 7 2 + + 2 8 f u # @ w i w T D.F.~ 4 w - O @ e p w ! F.J.$.n o.%.-.&.%.2.v.m.",
"M.c.5.%.-.-.-.X.v x $ * 8 f 8 3 & * 8 f 8 2 $ + 2 7 7 2 + + 3 8 f w @ * u f 4 s q.q.d w 4 - X @ w p w a r.q.F Z o.<.<.&.%.4.v.m.",
"M.c.5.%.&.-.-.X.v k $ & f h 8 3 + 1 8 f 8 3 + + 1 2 4 2 + % 2 8 p u @ * u p w w M B s d d a r y V R d s B m Z Z o.<.<.&.%.4.v.m.",
"M.z.3.%.-.-.;.@.v x % # 8 h p 3 + * 8 h 8 2 + . o 1 3 2 + + 2 8 f u @ @ w f w 2 - q L q.r.r.q.r.t.t.9.L 9 : l Z o.>.&.<.%.4.c.m.",
"B.z.3.-.-.-.;.@.v q % @ 7 f 8 2 + # 8 h 8 7 2 * + + 2 2 @ + 2 8 p u @ * u p w - O - C q.t.i.i.i.i.t.9.C & $ k Z o.>.<.<.%.2.c.m.",
"B.z.3.%.-.-.-.X.Z , % @ 3 8 8 1 + # 8 h f h W p & + 1 2 + + 1 8 p i # @ u p w 3 + @ r N J J J L J J s 7 @ $ k S @.-.-.&.&.4.v.m.",
"B.z.3.%.-.-.-.X.Z k % + 1 8 7 2 + & 0 f f h ) h 1 + 2 2 + + 2 8 i w @ # u p 4 # o + 3 8 y b q x b t 7 - + % , Z o.-.-.&.&.4.v.m.",
"M.c.3.%.-.-.;.@.Z k % + 2 4 4 2 + + 3 8 8 8 f 8 # % 2 2 @ + 2 7 w 3 + # i i 2 X X + 3 8 0 5 & & 6 7 7 2 + % k Z +.-.-.-.&.4.z.m.",
"M.c.5.%.-.-.;.@.Z k % + 2 4 7 1 + + 1 4 4 4 3 1 # * 2 2 + + 1 4 4 - o + w w @ X + # 3 8 7 2 O + * 4 4 2 O $ k Z @.-.-.-.&.4.z.m.",
"M.z.5.%.-.-.;.@.v k $ + < 4 4 1 % O 1 4 7 2 * # < 1 3 1 + O 1 4 3 < O @ 7 4 + X * 4 8 8 4 1 O o < 4 4 < O $ k Z o.<.<.&.&.4.v.m.",
"B.z.3.%.-.-.%.o.v x q 0 g R R U 0 0 N U E U 0 q d U U d 0 0 U R R N r r d d r r d R Y h U N 0 0 d R R Y r q l Z o.<.<.<.&.4.v.m.",
"B.z.3.%.-.-.-.o.S G w.g.g.S.S.A.g.s.f.g.g.g.s.s.f.g.g.f.s.g.g.A.H.j.g.s.g.f.d.f.g.g.g.g.g.f.s.f.h.k.H.k.g.9.A Z o.<.<.&.%.4.v.m.",
"B.z.3.%.&.-.-.o.v H f.G.I.I.I.I.S.A.A.A.A.A.A.A.A.A.A.A.A.S.I.I.Y.I.F.A.A.A.A.A.A.A.A.A.A.A.A.S.P.I.Y.I.G.f.H Z o.<.<.&.%.2.v.m.",
"M.c.5.%.%.%.;.@.v G r.g.g.V.A.g.g.s.s.s.f.f.s.f.s.f.s.f.f.g.g.V.j.h.f.f.s.a.s.f.s.s.s.f.s.s.s.f.h.j.h.h.f.9.A Z o.<.<.&.&.4.v.M.",
"M.c.5.%.%.%.;.@.v Z K _ w......._ _ ` ` ` _ _ ` _ ` ` _ _ _ ....} } _ _ ` ` ` ` _ _ _ _ ` _ _ _ } ....} ` K n Z o.<.<.<.<.2.v.m.",
"M.c.5.%.%.;.;.X.S x 5 5 7 0 0 6 5 5 6 0 6 6 5 5 6 0 6 6 5 5 6 0 0 6 5 5 6 7 6 6 5 5 6 7 9 6 5 5 6 0 7 0 5 > l S o.>.%.&.<.4.v.m.",
"M.c.5.%.%.%.;.X.v x $ . # 1 1 # X . + # 1 * . . & 1 1 * O . # 1 < # O O # < 1 # O O # < 1 * O O # 1 < # O % k Z o.>.&.&.&.2.c.m.",
"M.c.5.&.%.%.;.X.v , $ + 1 4 3 1 + . . @ 2 1 + + 1 2 4 1 O O 1 4 2 1 O O - 3 3 1 + + 1 4 4 1 O + 1 3 3 < + $ k Z o.<.<.%.<.5.v.M.",
"B.c.5.%.%.;.;.X.v x % + 2 7 4 4 1 & O + 2 2 + + 4 8 8 2 + + 2 8 8 4 @ + 2 7 8 2 + + 2 7 7 2 + + 2 7 8 2 + % k Z o.<.<.<.&.2.c.M.",
"M.c.5.%.%.%.;.X.v x % + 2 4 4 8 8 0 @ @ 2 2 + & 0 f 8 1 + + 2 8 p 8 # + 1 8 7 2 + + 2 4 7 1 @ + 2 4 4 2 + % k Z o.<.<.&.<.5.c.m.",
"B.c.5.%.;.;.;.X.v x % @ 2 4 4 8 f p * @ 2 2 + * p h 8 2 + @ 2 8 f u # + 2 7 4 2 + + 2 7 8 2 + + 2 7 7 2 + % k Z o.<.<.&.<.2.c.m."
};
