/* XPM */
static char *result[] = {
/* columns rows colors chars-per-pixel */
"64 64 244 2 ",
"   c #000000",
".  c #0A0505",
"X  c #0D0906",
"o  c #050609",
"O  c #0A060A",
"+  c #0C090E",
"@  c #050A0D",
"#  c #100C07",
"$  c #130B0C",
"%  c #1A0E0C",
"&  c #140606",
"*  c #1D110D",
"=  c #18160A",
"-  c #0C0C13",
";  c #0C0E17",
":  c #130B12",
">  c #190E15",
",  c #100F19",
"<  c #1B0F19",
"1  c #13121C",
"2  c #1C111A",
"3  c #191316",
"4  c #0A131C",
"5  c #250B0D",
"6  c #22140D",
"7  c #241C0E",
"8  c #2A1613",
"9  c #271717",
"0  c #341918",
"q  c #280F11",
"w  c #2B2414",
"e  c #3B211C",
"r  c #352618",
"t  c #353016",
"y  c #191624",
"u  c #1C1A2B",
"i  c #171624",
"p  c #161C2B",
"a  c #2B1A23",
"s  c #2D1A29",
"d  c #241824",
"f  c #341E2A",
"g  c #211F32",
"h  c #152332",
"j  c #2E2A2D",
"k  c #2C2627",
"l  c #3A2427",
"z  c #3A362B",
"x  c #232134",
"c  c #292538",
"v  c #392733",
"b  c #393436",
"n  c #23333E",
"m  c #41251F",
"M  c #4B2A1F",
"N  c #43381E",
"B  c #611F21",
"V  c #4A2A23",
"C  c #452927",
"Z  c #552A27",
"A  c #483828",
"S  c #5B3624",
"D  c #58352A",
"F  c #4B2C35",
"G  c #462A38",
"H  c #532C35",
"J  c #4A3639",
"K  c #563235",
"L  c #53343D",
"P  c #5C373A",
"I  c #643A2D",
"U  c #64392E",
"Y  c #6B3E32",
"T  c #643A37",
"R  c #6E2E31",
"E  c #571D1F",
"W  c #3D453B",
"Q  c #494228",
"!  c #584928",
"~  c #5D5226",
"^  c #5E532A",
"/  c #454636",
"(  c #4B4B34",
")  c #4C4537",
"_  c #564936",
"`  c #5A5436",
"'  c #67492C",
"]  c #675729",
"[  c #725D2A",
"{  c #684538",
"}  c #744334",
"|  c #794736",
" . c #7C4A35",
".. c #75453B",
"X. c #7C4B3B",
"o. c #754B37",
"O. c #6A5934",
"+. c #755735",
"@. c #76462F",
"#. c #73602A",
"$. c #7D662D",
"%. c #776634",
"&. c #6F673F",
"*. c #1B2C43",
"=. c #2A2947",
"-. c #373855",
";. c #30324E",
":. c #373E6B",
">. c #4A3543",
",. c #523845",
"<. c #6C3C46",
"1. c #344953",
"2. c #3B496A",
"3. c #335463",
"4. c #314F70",
"5. c #574648",
"6. c #58525D",
"7. c #4E514F",
"8. c #694644",
"9. c #794C47",
"0. c #795647",
"q. c #6A4E58",
"w. c #6F5653",
"e. c #71684F",
"r. c #494A64",
"t. c #464B78",
"y. c #53526C",
"u. c #6A566C",
"i. c #5D6973",
"p. c #446171",
"a. c #6E6B72",
"s. c #4E605E",
"d. c #8B3636",
"f. c #814D36",
"g. c #834E39",
"h. c #85473A",
"j. c #86513A",
"k. c #8C543A",
"l. c #87583C",
"z. c #90573B",
"x. c #92593C",
"c. c #934338",
"v. c #846B2E",
"b. c #8A6E2F",
"n. c #866B31",
"m. c #8C7030",
"M. c #923B43",
"N. c #9A4547",
"B. c #8C5A43",
"V. c #875849",
"C. c #925B44",
"Z. c #8C4A4C",
"A. c #B84649",
"S. c #B04E52",
"D. c #8B6748",
"F. c #986748",
"G. c #9C754B",
"H. c #8C6250",
"J. c #886A53",
"K. c #926954",
"L. c #9A7759",
"P. c #A36D4B",
"I. c #A7774D",
"U. c #A47556",
"Y. c #AA7B56",
"T. c #B47C55",
"R. c #B6684F",
"E. c #8A7168",
"W. c #B1716C",
"Q. c #AC5762",
"!. c #CC5054",
"~. c #D06F5A",
"^. c #D97766",
"/. c #D16D6E",
"(. c #BD895D",
"). c #B68359",
"_. c #AE8255",
"`. c #B88866",
"'. c #BD9575",
"]. c #B38E6C",
"[. c #9E856A",
"{. c #C48B5D",
"}. c #C8935D",
"|. c #D88E63",
" X c #C89566",
".X c #D59B66",
"XX c #C89977",
"oX c #D49F76",
"OX c #C28B66",
"+X c #DEA56B",
"@X c #DAA267",
"#X c #D8A678",
"$X c #C8A17A",
"%X c #E0AC77",
"&X c #E6B27F",
"*X c #E1A669",
"=X c #3B598C",
"-X c #346388",
";X c #3C6B9A",
":X c #2F6284",
">X c #3E71A7",
",X c #4E5695",
"<X c #4C558E",
"1X c #4A6795",
"2X c #4E698B",
"3X c #5070B4",
"4X c #7177AA",
"5X c #766592",
"6X c #5278C5",
"7X c #B57091",
"8X c #8B6CA3",
"9X c #827E82",
"0X c #C97B9B",
"qX c #D17B8A",
"wX c #D77ABC",
"eX c #6285B6",
"rX c #5888DB",
"tX c #5383C8",
"yX c #5D89E3",
"uX c #5D91EE",
"iX c #658EDC",
"pX c #8B848A",
"aX c #AF96B3",
"sX c #B8A6AD",
"dX c #A28EA4",
"fX c #D39291",
"gX c #D8A985",
"hX c #DEB48C",
"jX c #D3A887",
"kX c #E3B58D",
"lX c #E7B889",
"zX c #EBBE93",
"xX c #E7B796",
"cX c #E4AA92",
"vX c #DB87B5",
"bX c #DC92AC",
"nX c #E19EA7",
"mX c #EAB5A2",
"MX c #E6A6A8",
"NX c #EEC29B",
"BX c #EDC196",
"VX c #F0C59B",
"CX c #9695C5",
"ZX c #C7ABC6",
/* pixels */
"                    X # # X .                 . X & X X X X X X X . O .                                                         ",
"                  % 0 V D M 0 6 .           X 8 e l m e m e C e 0 f a 2 +                                                       ",
"                  * M ' | Y D m 8 * 5 > * 6 0 V I Y Y Y Y Y Y Y Y T H C 0 * * % $ .                                             ",
"                  * m I | f. .Y Z V V V V V D }  .g.g.f.f.f.f.g.f.X...Y K Z V V e 6 X                                           ",
"                  % 0 D } j.k.f.| } | Y T T T X.k.x.x.z.x.z.k.h.f.f.f. .| | ..} U m 8 $ .                                       ",
"                  % m D } f.j.k.k.j.g.X.T P P X.k.z.k.k.k.k.f.} Y Y } |  .j.k.g.f.' Z e % X                                     ",
"                  % 0 U Y Y f.f.k.g.9.T T ....g.k.z.k.k.f.| } Y Y }  .f.k.k.k.z.k.f.} U m 0 $                                   ",
"                  $ 8 V U U Y | | ..T T 8.g.k.k.k.k.k.f.} Y Y Y }  .g.k.k.z.z.k.z.k.g.| I V 8 X                                 ",
"                  . $ 6 0 Z U P T <.T X.g.k.z.z.z.g.h.Y Y Y Y | g.k.k.z.k.z.z.z.z.z.k.f.Y Z 8 #                                 ",
"                      X 9 C H K K T X.j.k.g.g.h.f.| | Y Y @.f.j.z.z.z.z.z.z.k.z.k.z.k.f.} U m 8 $ X                             ",
"                      o > v F K T Y g.h.| ..Y Y } | f.j.k.h.k.z.k.k.k.k.k.k.x.x.x.z.k.k.k.| U V 0 $                             ",
"                      . > f G K T Y | Y Y T P Y | f.k.z.z.z.z.z.k.k.| | X.j.C.P.P.C.g.f.k.h.| U m %                             ",
"                      . > f G H H Z T T K L L ..g.z.z.k.f. .@.@.| X.X.X.9.B.P.T.I.j.Y I @.@.Y D l %                             ",
"                      O < f v f 0 0 C G G G L ..k.z.z.| D 0 7 8 V 0.[.'.XX].).P.l.V 8 6 6 0 C G f $ .                           ",
"                        + a a > : > s v >.G L ..k.k.g.@.' A N V ' [.#XBXzXkXXX`.F.{ A N N z C v s +                             ",
"                      o . + O O O : s G H >.P ..g.g. .j.l.x.D.D.L.'.hXVXVXzXkXjX XU.G.D.F.D.{ F s $ .                           ",
"                                o $ s G <.w.V.X.j.j.B.F.P.I.G.n.G.].gXlXlXlXlXlX$X_.G.I.}.(.H.{ l $                             ",
"                                o : s H V.U.Y.B.l.F.).).F...D e A D.{.*X*X*X*X|._.{ ) w.I.{.P.j.S 5 .                           ",
"                                  : s G 8.B.F.P.I.(.}._.o.F b i.pX]..X.X*X*X*X*X'.[.9XE.K.F.x.f.S 6 .                           ",
"                            . & 5 0 H <.Y 9.F.T..X+X@X_.! w -.eXCXsXgX|.|.|.|.^.fXsXCXpXw.| f. .S 6 .                           ",
"                            & 0 B R M.N.N.Z.C. X#XlX+X_.! j -.4XCXsXoX|.^.^.^.^.fXCXCX4Xu.Y h.| S 7 .                           ",
"                          . 5 B M.!.A.S.N.B.K.XXlXBX&X(.D.8.r.4XdXpX~.~./.!./.qX7X8X8X5XH.V.B.f.S 8 .                           ",
"                            q R A.!.N.Y Y Y V.XXhXVXBXxXjXjXXXXX{.R.S.A.!.qXbXZXZX7XS.Q.XXXXY.j.S 6                             ",
"                            q R S.A.M...g.D.`.#XxXmXMXnXnXnXcXoX|.~.!.!.!./.qXfX7XM.<.Z.fXfXW.Z.S 6 .                           ",
"                            5 Z M.N.M.Z.x.{..XlXxXMXbXvXvXvXbX#X.X~.R.A.S.S.S.Q.M.H C q.7X0XW.Z.S 6 .                           ",
"                            X 0 E B R d.R.}.*XlXxXMXvXwXwXvXbXcXoXOXS.M.R R H E Z V H Z.7X0XW.B.S 6 .                           ",
"                                . 5 B d.N.{..X%XlXMXnXvXvXbXMXmXgX`.C.Y V r 0 0 C { H.W.0X0XW.Z.S 6                             ",
"                                  & & q S k.T.{.+XcXxXmXmXmXmXNXxX#XOX(._.Y.I.Y.Y.'.jXcXnXfXW.C.S 6 .                           ",
"                                      % m Y F.{..XlXzXNXNXNXNXVXkX#X).P.n.+.+.+.D.'.hXzXkX#XT.z.S 6 .                           ",
"                                      & 8 Z o.P.{.#XlXzXBXNXVXNXkXXXT.D.{ A A ) e.].hXlX#X{.F. .M = .                           ",
"                                      . % 0 V { H.`.$XlXzXNXNXNXlXjX'.U.J.0.0.e.L.jXhX#X(.F.@.N 8 #                             ",
"                                          X $ a F 9.Y. X#XgXkXBXzXzXBXzXzXzXzXzXzXlXjX`.F.@.e #                                 ",
"                                      X = t t 3 9 l ,.9.V.K.Y..X#X%X%X%X%X%X%X#X@X].I.F.X.D 8 #                                 ",
"                                    = 7 t N N t w r G >.,.6.w.K.U.U.U.U.U.Y.[.[.[.J.+.' K l 3 .                                 ",
"                              o - 3 k W Q Q ! N z C F >.r.r.s.6.q.w.q.q.q.q.u.i.i.` ~ W z k > X                                 ",
"                            o 4 h 1.r.y.6.( A ! ! ^ ! 5.7.2.2.<X<X<X<Xt.2.4.=X1X;Xs.Q Q z j d , @ .                             ",
"                            ; n 3.=X3X6X,Xy.,.P ! ] [ +._ 5.t.tXrXuXuXtX;X;X3XrXeXi.` ~ Q A b x p - o                           ",
"                            @ u ;.=X6X6X6X6X,Xy.) ) ' ] ] &.u.2XtXrXuXrX>X;XtXrXiXa.&.#.~ ( 1.1.;.h 1 +                         ",
"                      o 4 4 p n >.t.3X6XyXyX6X2.v N Q ] #.%.&.s.:X3XtXtX>X;X>XtXeX9X%.#.~ ( 1.1.;.n p - o                       ",
"                      o 4 *.1.3.4.t.t.,X3XrX6X:.u w t ~ #.$.$.~ 7.p.-X;X:X:X-X;X2Xe.%.#.~ ! 7.>.;.=.u , o                       ",
"                      @ h 3.-X;X-X=Xt.t.<X=X:.*.@ = 7 N ] $.$.#.^ 7.3.3.3.3.3.3.7.&.%.#.^ _ 6.y.:.=.u , o                       ",
"                      @ h *.4.4.:X<X3X,X:.*.4 @ o   # w ~ $.b.b.$.] ~ ( W W W ( ] $.$.#.] 7.2X3X1X-.g , o                       ",
"                      . 4 h n 1.6.u.5Xu.>.1 o   o = w t ~ $.m.m.b.$.#.^ W W ( ] $.$.$.$.] ` a.a.u.,.c < O                       ",
"                        o - 2 A o.B.C.o.C >     # 7 t ~ #.$.m.m.b.b.$.&.( W ` %.m.m.$.#.~ ^ +.0.q.,.f < O                       ",
"                        + 2 l U f.x.x. .M * .   # 7 N ^ #.n.m.b.m.m.m.&.( W ` $.m.m.$.$.~ ~ @.f.Y L v 2 +                       ",
"                      o $ 9 f K } f.k.g.' D t 9 3 w N ~ #.v.m.b.b.m.$.] ( W ` %.m.m.$.#.~ ~ +.j.Z.V.8.C 9 + o                   ",
"                        o O < s F T X.x.P.G.K.{ J A ! ] #.n.n.n.m.m.$.#.( W ` $.m.m.m.$.~ ~ +.C.P.T.U.9.F 9 + O                 ",
"                            O 9 G L ..x.T.}. XY.K.J.D.D.+.+.+.n.b.m.b.&.( ( ` $.m.m.$.#.~ ] n.I.{..X(.V.L s : +                 ",
"                            O 2 f H { z.I.|.@X.X}.}.}.).0.8._ [ $.$.$.O./ W ` O.v.b.$.] ~ #.G.}..X@X(.H.L s : $                 ",
"                            o O > a F 8.K.{.@X*X*X*X@X(.V.P J ' ] #.^ ! z b Q ^ ] ] ] ^ ~ ] _.}.*X+X(.H.L s $ +                 ",
"                                O : f L V.`.*X@X+X+X+X(.H.,.F J Q Q Q z c c b A Q Q Q A W ] G..X*X+X{.V.L s : +                 ",
"                                  : a L V.(..X.X.X.X X).0.,.v v j j j k x x c c j j j j j ) D.(..X@X).V.L s $ +                 ",
"                                  + < l { V.U.U.G.U.U.V.<.>.g g x p 2 p u g g g x x x x x G w.K.U.U.D.{ l < + O                 ",
"                                    o $ d G L L L ,.,.>.=.g g g p , + + i u g g x x n x g g v J L ,.G a : o                     ",
"                                      . + > < < d g >.-.=.g g 1 - @ . o + , i u =.=.;.=.=.g y 2 2 2 : +                         ",
"                                        .   . o + i =.=.=.s y + .       o o , p =.;.;.;.c u : O . . o                           ",
"                                                o @ i u g u i @           o ; u g =.=.=.g y ; o                                 ",
"                                                  o o - , 1 , +           o , u g u y y i 1 -                                   ",
"                                                o + i i , o               . 1 y u ; + o o o                                     ",
"                                                o o - ; +                 o + - ; o                                             ",
"                                                    o o                       o .                                               ",
"                                                                                                                                ",
"                                                                                                                                ",
"                                                                                                                                "
};
