/* XPM */
static char *_946dcb481214efcfe2d5fb2ef58f70eOGfhDtmcjfzHPbbM[] = {
/* columns rows colors chars-per-pixel */
"64 64 232 2 ",
"   c None",
".  c #000000",
"X  c #0C0809",
"o  c #10090E",
"O  c #150B08",
"+  c #18130B",
"@  c #0C0B13",
"#  c #050B12",
"$  c #0B151C",
"%  c #180F14",
"&  c #2A0B0C",
"*  c #261A0E",
"=  c #271818",
"-  c #351817",
";  c #37241A",
":  c #3A3519",
">  c #29240E",
",  c #1D1B2C",
"<  c #161421",
"1  c #1C1D34",
"2  c #0D1A27",
"3  c #291827",
"4  c #331E2D",
"5  c #211F33",
"6  c #2E1F35",
"7  c #1A2439",
"8  c #2C282F",
"9  c #3E3A29",
"0  c #39342C",
"q  c #222034",
"w  c #2A2434",
"e  c #26243E",
"r  c #25273D",
"t  c #382536",
"y  c #28313C",
"u  c #39332D",
"i  c #401D1D",
"p  c #473A1E",
"a  c #45291C",
"s  c #4F1B20",
"d  c #711F20",
"f  c #46282C",
"g  c #582C2E",
"h  c #4C3924",
"j  c #4B3525",
"k  c #5A382B",
"l  c #41253C",
"z  c #4D2C3B",
"x  c #442937",
"c  c #522E39",
"v  c #4B3738",
"b  c #55333C",
"n  c #5B353B",
"m  c #5C3837",
"M  c #69392C",
"N  c #692D33",
"B  c #633730",
"V  c #663931",
"C  c #6B3D32",
"Z  c #623A3B",
"A  c #713839",
"S  c #69252A",
"D  c #3A4035",
"F  c #4B4627",
"G  c #5B4D2A",
"H  c #564A24",
"J  c #5E5325",
"K  c #5D5028",
"L  c #454737",
"P  c #4B4835",
"I  c #584936",
"U  c #5B5435",
"Y  c #61492A",
"T  c #625425",
"R  c #685928",
"E  c #6A4539",
"W  c #734234",
"Q  c #784635",
"!  c #7C4936",
"~  c #75463B",
"^  c #7C4A3B",
"/  c #774831",
"(  c #6B5A35",
")  c #7C5833",
"_  c #755D2B",
"`  c #7C652C",
"'  c #7B652B",
"]  c #746232",
"[  c #7A6734",
"{  c #292B45",
"}  c #323156",
"|  c #3B375B",
" . c #35304D",
".. c #373D61",
"X. c #183243",
"o. c #5A3942",
"O. c #533542",
"+. c #463C47",
"@. c #643E41",
"#. c #7B3B46",
"$. c #1F4057",
"%. c #3E475E",
"&. c #2D4B5B",
"*. c #384868",
"=. c #335465",
"-. c #305071",
";. c #495759",
":. c #4F5251",
">. c #664346",
",. c #6A4545",
"<. c #6A4843",
"1. c #774E45",
"2. c #7A5646",
"3. c #745450",
"4. c #5D635C",
"5. c #76694E",
"6. c #484877",
"7. c #4F4968",
"8. c #705362",
"9. c #6F6F6A",
"0. c #496779",
"q. c #853339",
"w. c #842829",
"e. c #814C37",
"r. c #834E39",
"t. c #81413E",
"y. c #85513A",
"u. c #8D543B",
"i. c #885436",
"p. c #90573B",
"a. c #93593C",
"s. c #99563D",
"d. c #846B2E",
"f. c #856B2D",
"g. c #896D31",
"h. c #8C7130",
"j. c #92613E",
"k. c #A54538",
"l. c #AE3F45",
"z. c #8E3741",
"x. c #8A5B46",
"c. c #945740",
"v. c #915351",
"b. c #A85A5A",
"n. c #B1494A",
"m. c #9A6749",
"M. c #986F54",
"N. c #A36B49",
"B. c #AA724C",
"V. c #A36956",
"C. c #A97955",
"Z. c #B17C54",
"A. c #B96F54",
"S. c #AE6577",
"D. c #D04B55",
"F. c #C85357",
"G. c #C27C53",
"H. c #DB5764",
"J. c #DA6569",
"K. c #E26978",
"L. c #AD8255",
"P. c #B5835C",
"I. c #B98658",
"U. c #BB8A66",
"Y. c #BF9376",
"T. c #BB8D7D",
"R. c #C68D5B",
"E. c #D8855D",
"W. c #C9925D",
"Q. c #C28B67",
"!. c #C69362",
"~. c #CB9463",
"^. c #CA966B",
"/. c #D69C67",
"(. c #C99B78",
"). c #DA8863",
"_. c #DCA265",
"`. c #DDA66C",
"'. c #DAA67B",
"]. c #E1A669",
"[. c #E2A86D",
"{. c #E2AB75",
"}. c #E6B179",
"|. c #396898",
" X c #30678C",
".X c #3B6EA1",
"XX c #3C72AA",
"oX c #345982",
"OX c #4A4D83",
"+X c #48569B",
"@X c #426C95",
"#X c #4F6D92",
"$X c #555DA5",
"%X c #5470B5",
"&X c #6860AA",
"*X c #5777D1",
"=X c #5870C4",
"-X c #817F8A",
";X c #BC718D",
":X c #8574BA",
">X c #AA5E94",
",X c #C8769D",
"<X c #D87586",
"1X c #D574BE",
"2X c #6482B9",
"3X c #5586DA",
"4X c #6C8CCA",
"5X c #568DE3",
"6X c #5C94F1",
"7X c #6395F7",
"8X c #969293",
"9X c #D08F91",
"0X c #E3919C",
"qX c #CCA682",
"wX c #D7A785",
"eX c #DFB185",
"rX c #D0AC90",
"tX c #E7B88B",
"yX c #EBBE93",
"uX c #E7B797",
"iX c #DA85B6",
"pX c #DC8CAD",
"aX c #E297B2",
"sX c #EBB7A2",
"dX c #E4A2AB",
"fX c #EEC398",
"gX c #F1C69B",
"hX c #EDC08F",
"jX c #F8CDA3",
"kX c #B7B9E0",
"lX c #A5A7D7",
"zX c #C9ACC7",
/* pixels */
"                                                                                                                                ",
"                                                                                                                                ",
"                                                                                                                                ",
"                                                                                                                                ",
"                                                                                                                                ",
"                                                                                                                                ",
"                                                                                                                                ",
"                                                                                                                                ",
"                                                                                                                                ",
"                                                                                                                                ",
"                                                                                                                                ",
"                                                                                                                                ",
"                                                                                                                                ",
"                                                                                                                                ",
"                                                                                                                                ",
"                                                                                                                                ",
"                                p.r.W B             V V V V B V V m z l                                                         ",
"                                Q Q ! Q C B B B B W ! e.e.e.e.e.e.e.~ ~ C B B                                                   ",
"                                B W y.u.! Q Q C m V r.a.p.a.p.u.r.e.r.e.Q W Q W C                                               ",
"                                B C e.u.u.u.u.~ n n ^ p.p.u.u.r.C V V W y.u.u.u.W C                                             ",
"                                V V B Q u.r.n n ~ u.u.u.u.y.Q V C C r.p.u.p.u.u.u.r.C V                                         ",
"                                  C V B m Z ,.~ u.a.p.u.! W B C Q r.u.p.p.p.a.u.p.r.C V                                         ",
"                                  = g c c Z r.p.y.e.! ! Q W W ! r.p.p.p.u.u.u.p.p.u.e.W C                                       ",
"                                . o 4 z B C r.r.C B C W y.u.p.p.p.p.u.i.u.p.a.a.u.u.p.r.W B                                     ",
"                                . o 4 c B V C Z c n Q u.p.p.p.u.p.r.~ E V y.Z.I.y.W y.y.W B                                     ",
"                                . o 4 x = 3 f z l b ^ s.a./ a * * k M.Y.(.U.Z.y.a % * - f c                                     ",
"                                . X = < X X 3 O.l b ^ u.e.W k h h 2.qXjXjXtXQ.M.Y h j j x  .                                    ",
"                                . . . . . o 4 O.O.@.r.r.! u.I.W.I.!.eXhXyXyXfXeX!.R./.P.1.z                                     ",
"                                    . . . o 4 @.C.Z.r.y.Z.I.x.k > h L.`.`.`.`.L.j j Z.W.m.r.                                    ",
"                                    . . . X 6 O.x.m.N.R./.Z.h 8 #X8X(._._._._.(.8X#Xm.a.s.p.                                    ",
"                                    . X & s A t.A x.^.}.[.N.> 7 2XkXqX~.).).E.9XkXlX8.M e.p.                                    ",
"                                    . & w.l.D.n.c.V.qXyX}.L.h { &X8X9XE.J.H.J.;X:X&X8.^ u.p.                                    ",
"                                    . - l.F.c.C V x.qXfXfXtXrXqX9XU.n.n.D.<XzXzXS.n.(.qXV.u.                                    ",
"                                    . - n.D.A W m.Q.eXsXdXaXdX0X'.).F.D.H.K.0XS.g N ;X9XV.u.                                    ",
"                                      = N #.q.s.R.}.yXsXiX1X1XiXwX/.F.l.q.q.q.S - l >X,Xb.u.                                    ",
"                                        . & d k.G.`.tXuXaXiXiXaXsXwXM.B ; + * ; C v.,X,XV.r.                                    ",
"                                            O - / B.~.{.uXuXsXfXfXtX`.R.R.I.I.!.wXuXuXwXV.u.                                    ",
"                                              - V c.R.}.hXgXgXgXgXeXP.j.Y a p 2.(.gXtX/.N.u.                                    ",
"                                                4 k x.U.wXhXgXgXgXuXU.M.E v P 5.qXyX/.Z.j.                                      ",
"                                                X O 4 n C.^.wXtXuXuXfXhXfXyXyXtXtX(.m.u.                                        ",
"                                            . + : : O % x >.E x.U.`.`.`.`.`.`.~.B.x.~ C                                         ",
"                                          X > : H F : ; t  .7.;.3.^ 1.2.1.5.9.9.( k f t                                         ",
"                                      @ 2 7 ;.:.P h H H Y >.%.*.OXOXOX6.%.*..X X:.F 0 8 8                                       ",
"                                    . $ $.+X*X=X6.O.P K ' _ v 7.3X7X7X3X.X.X5X4X4.H H F y {                                     ",
"                                    . o t 6.3X7X7X%X7.v H T ' 5.0.XX5X5X.X.X5X4X5.' T L =.=.{ q                                 ",
"                                  $ X.$.*.*.6.$X7X*X} % p J ` ` U ;.@XXX X X X2X5.` T F L $.w 5                                 ",
"                                . $ -. X XoX6.6.@X-.2 . * p ' d.R U ;.=.=.=.=.;.[ h.T P 7.6. .5                                 ",
"                                . $ &.-.-.#X%X+X1 . . . X > R h.h.[ R F D D J R [ ` T 4.2X=X&.5                                 ",
"                                    # = E x.v.E * . . O : H ' h.h.f.d.] D L ] f.h.` K T x.3.O.l                                 ",
"                                    3 f / a.s.Y + . . O 9 R ` h.h.h.h.] L L ] h.h.[ J Y ) ! b t                                 ",
"                                      b E ^ c.e.k j = = : T [ h.h.h.h.] L L ] h.h.` J G ^ c.2.1.o.                              ",
"                                        l b ~ N.W.P.3.P Y ( ` d.d.h.h.[ L L ] h.h.` J G i.B.W.P.,.l                             ",
"                                        l b ~ N.W./.~.~.~.C.,.m ] h.h.[ D L [ h.h.' J ( L._._.P.,.l                             ",
"                                          z b x.I._._.].`.P.>.v G R R G u u U R R R H ] I.].`.I.,.l                             ",
"                                            t >.P.].]._.].P.,.t 0 9 9 0 w w 0 9 9 9 9 ( I.[.[.P.,.l                             ",
"                                            l >.C.~.!.~.W.C.>.t w q q q q q q q q 1 , +.V.~.~.C.>.l                             ",
"                                                o.O.o.O.o.O.t q q q     q q q q 5 q 5 w z o.o.o.                                ",
"                                                  3 % 3  .} { , 5         5 5 e } } { 5 w                                       ",
"                                                    . # 1 { e 5             q e } } { 5                                         ",
"                                                    . . . @ , q             q 5 5 , , q                                         ",
"                                                    . # < ,                 q , @ X                                             ",
"                                                  . . . @ @                 @ X . . .                                           ",
"                                              . . . . . . . .               . . . . . . .                                       ",
"                                            . . . . . . . . . .             . . . . . . . .                                     "
};
