/* XPM */
static char *a5c194da86cb4808d35d26adadfe994dObBygWzi23HFIQBZ[] = {
/* columns rows colors chars-per-pixel */
"64 64 119 2 ",
"   c #2C1736",
".  c #2C1A36",
"X  c #2E1C39",
"o  c #311D3C",
"O  c #2D2135",
"+  c #2F2038",
"@  c #302337",
"#  c #32253A",
"$  c #362B3D",
"%  c #382C3E",
"&  c #341F40",
"*  c #362342",
"=  c #392445",
"-  c #372A40",
";  c #3B2C44",
":  c #3E254B",
">  c #3E2A49",
",  c #3D3143",
"<  c #3E3248",
"1  c #40264D",
"2  c #412A4D",
"3  c #413547",
"4  c #44334D",
"5  c #48374F",
"6  c #47394E",
"7  c #483D4E",
"8  c #452D51",
"9  c #463153",
"0  c #483154",
"q  c #473951",
"w  c #4B3C54",
"e  c #4D345A",
"r  c #4D3C59",
"t  c #50375D",
"y  c #513A5E",
"u  c #513F62",
"i  c #4E4154",
"p  c #4E4158",
"a  c #504357",
"s  c #54445C",
"d  c #56485D",
"f  c #554463",
"g  c #594763",
"h  c #574867",
"j  c #5C4C64",
"k  c #5A4669",
"l  c #574868",
"z  c #5E4C6D",
"x  c #5F5067",
"c  c #5E4E71",
"v  c #604F67",
"b  c #60476C",
"n  c #614C6D",
"m  c #605067",
"M  c #63536A",
"N  c #64536D",
"B  c #64546C",
"V  c #624D71",
"C  c #675670",
"Z  c #675074",
"A  c #665474",
"S  c #685074",
"D  c #685075",
"F  c #695175",
"G  c #6A5476",
"H  c #6A5576",
"J  c #6B5477",
"K  c #6B5676",
"L  c #6A5873",
"P  c #6A5973",
"I  c #6B5A74",
"U  c #6B5A76",
"Y  c #6D5B76",
"T  c #6E5C76",
"R  c #665478",
"E  c #685779",
"W  c #6F597A",
"Q  c #6F597B",
"!  c #6F5A7B",
"~  c #6E597C",
"^  c #705A7B",
"/  c #705D7B",
"(  c #705A7C",
")  c #705D7D",
"_  c #725F7C",
"`  c #73607C",
"'  c #75637F",
"]  c #735B80",
"[  c #745C81",
"{  c #755E82",
"}  c #775F83",
"|  c #776183",
" . c #776283",
".. c #776483",
"X. c #786184",
"o. c #786185",
"O. c #796584",
"+. c #7A6585",
"@. c #7C6787",
"#. c #7A6688",
"$. c #7C6588",
"%. c #7C6689",
"&. c #7F6B8A",
"*. c #806B8B",
"=. c #816C8B",
"-. c #806B8C",
";. c #816C8C",
":. c #816D8C",
">. c #826D8D",
",. c #806C8E",
"<. c #836D8E",
"1. c #836E8E",
"2. c #856F91",
"3. c #857090",
"4. c #877193",
"5. c #887394",
"6. c #897395",
"7. c #8A7496",
"8. c #8B7497",
/* pixels */
": u } } y 1 1 1 1 1 1 1 & 1 : : : 1 : 1 1 1 1 : : : : : : : : 1 : : 1 1 1 1 1 1 1 1 1 1 1 1 1 1 1 1 1 1 1 1 : 1 : 1 2 g | } y : ",
": y } $.b 0 1 1 e y y t u t u t t y t e 1 1 e y t t t t t r t t t e 8 1 8 8 8 8 0 0 8 0 0 2 0 0 8 8 1 1 e y t t t y d N @.} t : ",
"1 y ] 2.$.F 0 t S } } } } [ [ [ } | | F t t F } } } } } } | } X.} D e 8 y j g g d j b d b g g j v y 8 e F X.X.} } } | @.2.} t 1 ",
": e } 6.1.^ t t ^ *.*.*.1.*.*.-.=.=.<.^ t 0 ^ *.=.=.*.*.=.=.&.=.2.~ t 8 j N M M M N m M m M M M M d 8 t ^ =.=.=.*.=.4.5.4.} t : ",
"1 t } <.' v 0 0 m T T T J J T J T ^ T n e 0 m T ^ T T T T T T T T n 0 8 g M M M M M M M m M M M v g 0 0 n T T T T _ -.6.6.{ r 1 ",
"1 t } *.N s 2 0 g M m M M M m M m M M d 0 8 y j j g j j j g j j v s 8 0 g M M M M N M M N M M N m b 0 4 d v j s g N ) *.4.} t : ",
": t } @.z q 2 0 b m M M M M M M m N M v 0 1 w r r w w r w y i r r q 2 0 g M M M N M M M N M M M N v 0 1 w r r r r i y N &.} t 1 ",
": e F E y 2 1 2 y d g g d g g g g g g y 4 1 8 4 4 4 9 4 4 2 4 4 4 2 2 8 y g j g s g g g g j g g d y 8 1 2 2 5 4 9 4 4 s D D e : ",
"1 8 e 0 2 1 : 1 8 0 8 8 0 0 0 0 0 0 0 8 2 1 1 1 2 1 1 2 1 1 1 1 1 1 1 1 8 8 8 8 8 8 0 0 0 8 0 0 8 8 1 1 1 2 1 2 1 2 4 6 e e 2 1 ",
"1 8 e t y y t t y y t y y 0 2 1 9 0 0 0 0 0 0 0 0 0 0 8 1 8 e y y y y t e y u y y t 8 1 8 0 0 4 0 0 0 0 0 0 0 8 1 9 y f y e 8 1 ",
"o t F } } } } } | } } } } F t 8 y d g g d b d g g j j y 9 e F X.} } } } } } } X.} D e 8 y j g j g g g g j g g y 8 e J O.} F e : ",
"1 y | 5.<.*.*.*.=.=.*.=.*.^ t 8 g B B B M M m N M M M d 0 t W <.<.*.*.*.&.&.&.=.-.W t 8 g M M M M M M M M M N g 9 e ^ 4.6.} t : ",
": t } 1.' T T T T T T T ^ n 0 0 g B M m M M M M M M M g 8 0 v T T T T T T T T T ^ v 0 0 j N M M M M M M M M M j 0 0 v X.<.} t 1 ",
": u } *.C d j j j v d j j s 8 0 g N M B M M M M M M M g 0 0 g M N j n M x x M M M g 0 8 s j j j v j j j j j j d 8 8 s C *.} t : ",
": t } *.v w r r w r r r r w 2 0 m m M N M N M M M M N j 0 0 g M M M M M M M M M M j 8 2 e r a y r r r r y a r w 8 1 q j @.} y 1 ",
"1 e D D y 4 4 4 2 4 4 4 2 2 1 8 y g d d b d g g g g d y 8 8 y g g g j d d g g g g y 8 2 2 4 4 4 4 4 4 4 2 4 4 2 1 1 4 y J F e : ",
"1 1 e e 1 : 1 1 1 1 2 1 2 1 1 1 2 8 8 8 0 0 8 8 8 0 8 8 1 1 8 8 0 0 0 0 0 8 8 5 0 8 1 2 1 1 1 1 1 1 2 1 2 1 1 1 1 1 2 w e t 2 1 ",
"1 8 e t u e 8 8 e y y t y t t y y y t e 8 1 t u y r y t u t y t y e 1 1 8 0 0 0 8 0 0 0 0 0 0 0 0 8 1 8 e y y t y y f s y 0 1 1 ",
": e D } *.D e e Z X.} } } } } } } X.} F e 0 F } | { | | } } } } ^ J e 8 y j d b g g g g j d g j v y 8 e F | | } ' X.X.X.} D t 1 ",
"1 t } 5.*.W e e W <.&.&.&.*.*.*.*.-.<.^ y e W <.<.&.=.<.-.*.*.-.1.^ e 0 g M N M M M M N M M M M M d 0 y ^ <.<.<.*.1.5.6.8.} u & ",
"1 y _ 1.^ M 0 0 M T T T T T T T T W T n 0 0 n W T T T T T T T T T n 0 0 b m M M M M M M M M M N m b 0 0 n W T T ^ ) *.6.8.} y : ",
": y } *.D y 8 0 g M M M j M v M m M M d 8 8 s j j g d j g g g j v y 8 0 d N M M M M M M M M M M N d 0 8 d v d j d M ^ &.5.} t : ",
": t ' *.v 5 1 0 g M M M M M M M M M N g 0 1 w r r r r r i r r a w w 2 0 d M N N M N M N M M M M M m 0 2 4 r r r r a y L *.} u : ",
": t F J y 2 1 8 y g g g g d g g g j g s 8 1 8 2 4 4 4 9 4 4 2 4 4 2 1 8 y b d j d d b d g g g j d y 8 1 2 4 4 4 4 4 4 y D D e : ",
": 8 e e 8 1 1 1 8 8 8 0 8 8 0 0 8 0 8 8 1 1 1 1 1 1 2 2 1 1 2 2 1 1 1 1 2 8 0 8 8 0 0 0 0 8 0 8 0 8 1 1 1 1 1 1 2 2 4 4 y t 1 1 ",
"1 8 0 t y y t y t y y y y e 8 1 8 0 0 0 8 0 0 0 0 0 0 8 1 8 e y y y y y y y y y t e 2 1 8 0 0 8 8 0 0 0 0 0 5 0 1 8 y s y 0 1 1 ",
": t S [ } } | ` } } } } | F e 2 y j g g g g g g g g g s 8 e F X.} } } } } } } } } F e 2 y j g g j g b d d b g y 8 t J @.} F t 1 ",
": t [ 6.1.=.=.=.*.*.*.*.*.^ y 0 d M N m v M M M M M M g 8 e W *.*.=.=.*.*.*.*.=.*.^ t 9 g M M M M v m N m m v b 8 t ^ <.8.} u & ",
": e [ *.( J J J C T T L T g 0 8 g m M v v v v M m M M g 8 8 z T T L N T C I L L I z 8 8 d M N v m m m v v v M d 2 5 k _ *.} t & ",
": t ^ *.F s d d d d j d d y 2 9 g m v m x v M j j v v s 8 8 d m v v v j v v v v v d 8 8 f m z v m m m m v v v d 8 1 y L $.( u : ",
": e [ } g w 5 w w w w w w 5 2 2 d n m m M v v v M v M g 8 8 f m v v v v v v v v m f 8 8 s v v v v n M v M M m s 8 2 4 g } [ t & ",
"o e D D e 2 4 4 2 2 4 2 4 2 : 2 y s d g f s g f f d s y 1 2 y d f d g s f f s d d y 1 1 y g s g s s g d u d d w 2 1 1 y D D e : ",
": 2 8 e > : : : > : : > : : = : 8 8 8 8 8 8 8 8 8 8 8 > : : 8 8 8 8 8 8 8 8 8 8 8 8 : : : 8 8 > 8 8 8 8 4 8 8 1 1 : > q 0 e 1 : ",
": : 9 e e e : 8 e e e e e e e e e e e 9 : : > 8 8 8 8 8 8 8 8 < 2 1 : 1 0 e e e e e e e e e e e e 0 : : 1 8 0 t e e s y r 8 : : ",
"& e V ~ { V 0 8 c ~ ~ ~ ( ( ^ ^ ~ ~ { c 0 8 w s p f p s f i s s d r 1 0 V ~ W W ~ ! ( W { W ~ ] ~ c 0 : e j F ^ ( ^ ^ ( ] b 0 & ",
"& e ~ &.#.Z 0 0 F X.O...O...| | | | ..A e : p x x j x j x j j j j s 1 0 J O...| ..X.| ..........%.R e : s M ` O.' O.&.-.$.] u & ",
"& e ] X.W g 2 2 g L N N N N M L N C C l 0 8 f j x j j j x j x x j s 2 2 h B B B N N C N N N N N C l 8 : s M M M B ! X.&.<.~ e & ",
": e ] #.N s 2 2 u s d d d d d d s d d r > > f h j j j j j j d x j d 2 2 r d d g d s d d d d d d d r 8 > s j M d j j ~ #.#.] e & ",
"* e E X.N s 2 : 4 w i 6 5 5 w 5 7 w q 4 : < d j j j j x j j j j x d 2 > 4 q q q 7 7 7 w w q 5 7 q 4 : 8 s x j j j j M U $.] e & ",
"& 8 V Z g w 2 = > < > ; 2 3 2 2 > < > > = > w d a i i s s s p s s q 2 = 2 > > < 2 ; 2 ; 2 2 > 2 3 > = : e s s r s p s k V b e & ",
"& : 8 8 > ; = & # = o $ & 1 1 o * * * * * * : > > > > > > > > > > : * * * * * * * = = = $ & * $ o $ & $ ; 2 2 2 > > 4 4 9 > : & ",
"& : > 9 9 8 > : 2 2 1 2 $ 1 o $ 2 8 9 9 9 8 9 9 8 9 8 > = = > 9 8 8 9 8 9 9 8 9 0 2 = * : > 1 2 1 1 1 2 1 = = = * = 4 w 9 > = * ",
"& 1 k Z A z s r w w w w w 5 1 2 k J U Z J A Z A F U F g : > k A A A F A C F Z J F k 1 = 5 w r w w w w w q w r 4 = 2 g A A k 8 & ",
"& 8 F #.%.! j d d d d d d w 1 2 n ) ) ) ! ~ ) ~ ) ) ) b 8 8 V _ ` ! ) ) ! _ ! _ ` N 2 > w d d d d d d d d d d w : 8 Z O.#.A 8 & ",
"& 8 A ..%.~ x d d d d d d w > > s j j j x M j x g m j d > 2 d m M j m j M v v v z s > : w d d d d d d d d d d w : 8 C O.#.Z 9 & ",
"& 8 A { ! x s r w a w a a 6 = : w d d s s i i s s d d w = = 4 i i r w p i w r w i q = > w d d d d s a s d a a w = > z W } Z 8 X ",
"X 8 c J d 4 < < 3 ; 3 2 3 ; * = 5 a s i s i a a a a a q = * ; < < 3 3 3 3 3 2 3 < ; * = 7 a a a a a a a a a s 4 $ = r z U c > & ",
". : f f < # $ # = # # $ # # o * 3 5 7 4 7 4 7 7 4 w q 3 * o # * # # * # # # $ # # # o * 2 6 7 4 5 5 5 5 q 3 5 2 $ o < w l u : & ",
"X & : = * + * & X & * X o X X & & * * * * - * * * * - * # X o o & X o # & + # + & & X & & * - - # # $ & * * * * X X - ; > : * & ",
"& & : > : = & & : : > > > 8 > : > < > > & & * * * * * * * = = = * * & o : 8 : > > > > : > > > < 1 2 & & : : ; > > > < 4 > > & X ",
"& = f z c f = > f c c c c V c c c c c p = & < q 6 6 q 6 3 7 6 3 q 4 * : f c c c c c c z c c c c b y 1 1 f c z z c z z z c u : X ",
". : z ~ R l > = f R C A C A A A R R R l > * w i i i i i i i i i i 4 * ; f R C L C R C C R R E E I g 2 = f L L L L Z A ~ ~ c : o ",
"  > l R l q * * i d a d s d s p d s d 7 - & < 7 q i 7 7 i 7 i 7 i 3 # * q d a d p d a d a a d a d 6 * * 4 s a a p d c R R k :   ",
"  & r f 6 < + X , 3 < < < 3 3 3 3 3 3 < & $ < 7 7 7 7 7 7 7 7 7 7 < # X < < < < < 3 < < 3 3 3 3 3 < @ @ < 3 3 < < q s z A k :   ",
"  + < < $ $ O X # % , $ % % % % - - - - . & < 7 7 w 7 i 7 i 7 i 7 3 o X $ - % % % % % % - - - - $ # X X # % % % $ , q s c k = . ",
"  . . O # O   . O O # O O @ @ # O O O O . . ; < < < , , % < % 3 < ; o . O O # O # @ @ # # O O & @ @ . . X O O O O O - 4 f r * . ",
"X   X   . & . . X . . . . . . O & . .     X X X & & & & & + + & @ o .     . . . X . . . . . . . X X     . . . . X O + - - * X . ",
"* * * & * * * * = - * & = * X X * = - * = * * * - * * * + + * * = = * * = = = = > = & . * = * - * = * * * * * * * - = - = = = = ",
"u u u u p f p f f f u u l < - * < l p f u u u u p f l < - - < l f u u f u u f f p < - - q f u u f u u u f p p f u u f f f u f f ",
"c c l l l l h h l l l l l p - - p l l l l l l l l l c < - - p h f l f l l l l l l p - - u l l l l l l l l l l l l l f l l c c c ",
"c l r < i 7 7 7 i < 7 i q < - - 3 7 7 7 q 7 7 7 < < p < $ $ < i i 7 7 i < < p i 7 3 $ $ 3 7 7 7 < q q q 7 7 7 7 6 7 7 7 q f c c ",
"l l < < , , , $ , , , , ; - # # $ , , , , , - , < < , , O $ $ , $ , $ , , , - , , $ # O - , , , < ; , < , , , , , , , < ; < l c ",
"c f < O O O $ # # O # O $ + O O # # @ @ @ $ @ $ @ @ # @ @ O @ # # O O $ O # # # # # # O $ @ # O # @ @ # $ O @ @ @ @ # O # < f c ",
"c p < O O O O O O O O O O O O O O O O O O O O O O O O @ O O O O O O O O O O O O O O O O O O O O O O O O O O O O O @ O O O < f c "
};
